<svg width="128" height="128" viewBox="0 0 128 128" fill="none" xmlns="http://www.w3.org/2000/svg">
<rect width="128" height="128" fill="white"/>
<path d="M106.631 84.5059C106.631 79.1096 107.17 75.62 108.25 74.0371C109.329 72.4542 111.379 71.6627 114.401 71.6627C116.992 71.6627 118.934 72.3463 120.229 73.7133C121.524 75.0084 122.172 77.059 122.172 79.8651V84.5059V120.013C122.172 122.532 121.488 124.51 120.121 125.949C118.754 127.316 116.848 128 114.401 128H18.6712H13.5987C11.0084 128 9.06578 127.352 7.77067 126.057C6.47556 124.762 5.828 122.82 5.828 120.229C5.828 117.351 6.58348 115.409 8.09444 114.401C9.67736 113.322 13.2029 112.782 18.6712 112.782H32.1619V15.5413H18.6712C13.3468 15.5413 9.85723 15.0017 8.20237 13.9224C6.61946 12.7712 5.828 10.7206 5.828 7.77066C5.828 5.10849 6.47556 3.16582 7.77067 1.94266C9.13773 0.647555 11.2243 0 14.0304 0H18.6712H67.3457H72.4182C75.0084 0 76.9871 0.647555 78.3541 1.94266C79.7212 3.23777 80.4047 5.18044 80.4047 7.77066C80.4047 10.7206 79.5773 12.7712 77.9224 13.9224C76.3395 15.0017 72.814 15.5413 67.3457 15.5413H49.2142V112.782H106.631V84.5059Z" fill="#666666"/>
</svg>
