<svg width="128" height="128" viewBox="0 0 128 128" fill="none" xmlns="http://www.w3.org/2000/svg">
<path d="M100.642 81.6252C100.642 76.987 101.106 73.9876 102.033 72.6271C102.961 71.2665 104.724 70.5863 107.321 70.5863C109.547 70.5863 111.217 71.1738 112.33 72.3488C113.443 73.462 114 75.2245 114 77.6364V81.6252V112.145C114 114.309 113.412 116.01 112.237 117.247C111.062 118.422 109.424 119.009 107.321 119.009H25.039H20.679C18.4527 119.009 16.7829 118.453 15.6698 117.34C14.5566 116.226 14 114.557 14 112.33C14 109.857 14.6494 108.187 15.9481 107.321C17.3086 106.393 20.3389 105.93 25.039 105.93H36.6345V22.3488H25.039C20.4626 22.3488 17.4632 21.885 16.0408 20.9573C14.6803 19.9678 14 18.2053 14 15.6698C14 13.3816 14.5566 11.7118 15.6698 10.6605C16.8448 9.54731 18.6382 8.99072 21.0501 8.99072H25.039H66.8757H71.2356C73.462 8.99072 75.1626 9.54731 76.3377 10.6605C77.5127 11.7737 78.1002 13.4434 78.1002 15.6698C78.1002 18.2053 77.389 19.9678 75.9666 20.9573C74.6061 21.885 71.5758 22.3488 66.8757 22.3488H51.2913V105.93H100.642V81.6252Z" fill="#666666"/>
</svg>
